<mxfile host="Electron" agent="Mozilla/5.0 (Macintosh; Intel Mac OS X 10_15_7) AppleWebKit/537.36 (KHTML, like Gecko) draw.io/24.7.8 Chrome/128.0.6613.36 Electron/32.0.1 Safari/537.36" version="24.7.8">
  <diagram name="Page-1" id="fs68x2WxWbWx5P29_dum">
    <mxGraphModel dx="876" dy="616" grid="1" gridSize="10" guides="1" tooltips="1" connect="1" arrows="1" fold="1" page="1" pageScale="1" pageWidth="850" pageHeight="1100" math="0" shadow="0">
      <root>
        <mxCell id="0" />
        <mxCell id="1" parent="0" />
        <mxCell id="2PBmP7rdpc5Au426MF9M-2" value="service" style="rounded=0;whiteSpace=wrap;html=1;fillColor=#dae8fc;strokeColor=#6c8ebf;" vertex="1" parent="1">
          <mxGeometry x="365" y="20" width="120" height="30" as="geometry" />
        </mxCell>
        <mxCell id="2PBmP7rdpc5Au426MF9M-3" value="" style="rounded=0;whiteSpace=wrap;html=1;" vertex="1" parent="1">
          <mxGeometry x="40" y="140" width="470" height="260" as="geometry" />
        </mxCell>
        <mxCell id="2PBmP7rdpc5Au426MF9M-4" value="" style="aspect=fixed;sketch=0;html=1;dashed=0;whitespace=wrap;verticalLabelPosition=bottom;verticalAlign=top;fillColor=#2875E2;strokeColor=#ffffff;points=[[0.005,0.63,0],[0.1,0.2,0],[0.9,0.2,0],[0.5,0,0],[0.995,0.63,0],[0.72,0.99,0],[0.5,1,0],[0.28,0.99,0]];shape=mxgraph.kubernetes.icon2;kubernetesLabel=1;prIcon=node" vertex="1" parent="1">
          <mxGeometry x="210" y="380" width="52.08" height="50" as="geometry" />
        </mxCell>
        <mxCell id="2PBmP7rdpc5Au426MF9M-5" value="" style="aspect=fixed;sketch=0;html=1;dashed=0;whitespace=wrap;verticalLabelPosition=bottom;verticalAlign=top;fillColor=#2875E2;strokeColor=#ffffff;points=[[0.005,0.63,0],[0.1,0.2,0],[0.9,0.2,0],[0.5,0,0],[0.995,0.63,0],[0.72,0.99,0],[0.5,1,0],[0.28,0.99,0]];shape=mxgraph.kubernetes.icon2;kubernetesLabel=1;prIcon=pod" vertex="1" parent="1">
          <mxGeometry x="70" y="160" width="50" height="48" as="geometry" />
        </mxCell>
        <mxCell id="2PBmP7rdpc5Au426MF9M-6" value="" style="aspect=fixed;sketch=0;html=1;dashed=0;whitespace=wrap;verticalLabelPosition=bottom;verticalAlign=top;fillColor=#2875E2;strokeColor=#ffffff;points=[[0.005,0.63,0],[0.1,0.2,0],[0.9,0.2,0],[0.5,0,0],[0.995,0.63,0],[0.72,0.99,0],[0.5,1,0],[0.28,0.99,0]];shape=mxgraph.kubernetes.icon2;kubernetesLabel=1;prIcon=pod" vertex="1" parent="1">
          <mxGeometry x="70" y="230" width="50" height="48" as="geometry" />
        </mxCell>
        <mxCell id="2PBmP7rdpc5Au426MF9M-7" value="ip address" style="rounded=0;whiteSpace=wrap;html=1;" vertex="1" parent="1">
          <mxGeometry x="120" y="166" width="150" height="36" as="geometry" />
        </mxCell>
        <mxCell id="2PBmP7rdpc5Au426MF9M-8" value="ip address" style="rounded=0;whiteSpace=wrap;html=1;" vertex="1" parent="1">
          <mxGeometry x="120" y="242" width="150" height="36" as="geometry" />
        </mxCell>
        <mxCell id="2PBmP7rdpc5Au426MF9M-9" value="" style="shape=mxgraph.mockup.markup.redX;fillColor=#ff0000;html=1;shadow=0;whiteSpace=wrap;strokeColor=none;" vertex="1" parent="1">
          <mxGeometry x="55" y="154" width="80" height="60" as="geometry" />
        </mxCell>
        <mxCell id="2PBmP7rdpc5Au426MF9M-10" value="" style="aspect=fixed;sketch=0;html=1;dashed=0;whitespace=wrap;verticalLabelPosition=bottom;verticalAlign=top;fillColor=#2875E2;strokeColor=#ffffff;points=[[0.005,0.63,0],[0.1,0.2,0],[0.9,0.2,0],[0.5,0,0],[0.995,0.63,0],[0.72,0.99,0],[0.5,1,0],[0.28,0.99,0]];shape=mxgraph.kubernetes.icon2;kubernetesLabel=1;prIcon=pod" vertex="1" parent="1">
          <mxGeometry x="70" y="306" width="50" height="48" as="geometry" />
        </mxCell>
        <mxCell id="2PBmP7rdpc5Au426MF9M-11" value="new ip address" style="rounded=0;whiteSpace=wrap;html=1;" vertex="1" parent="1">
          <mxGeometry x="120" y="312" width="150" height="36" as="geometry" />
        </mxCell>
        <mxCell id="2PBmP7rdpc5Au426MF9M-16" style="edgeStyle=orthogonalEdgeStyle;rounded=0;orthogonalLoop=1;jettySize=auto;html=1;entryX=1;entryY=0.5;entryDx=0;entryDy=0;" edge="1" parent="1" source="2PBmP7rdpc5Au426MF9M-14" target="2PBmP7rdpc5Au426MF9M-7">
          <mxGeometry relative="1" as="geometry" />
        </mxCell>
        <mxCell id="2PBmP7rdpc5Au426MF9M-17" style="edgeStyle=orthogonalEdgeStyle;rounded=0;orthogonalLoop=1;jettySize=auto;html=1;" edge="1" parent="1" source="2PBmP7rdpc5Au426MF9M-14" target="2PBmP7rdpc5Au426MF9M-8">
          <mxGeometry relative="1" as="geometry" />
        </mxCell>
        <mxCell id="2PBmP7rdpc5Au426MF9M-18" style="edgeStyle=orthogonalEdgeStyle;rounded=0;orthogonalLoop=1;jettySize=auto;html=1;entryX=1;entryY=0.5;entryDx=0;entryDy=0;" edge="1" parent="1" source="2PBmP7rdpc5Au426MF9M-14" target="2PBmP7rdpc5Au426MF9M-11">
          <mxGeometry relative="1" as="geometry" />
        </mxCell>
        <mxCell id="2PBmP7rdpc5Au426MF9M-14" value="svc" style="aspect=fixed;sketch=0;html=1;dashed=0;whitespace=wrap;verticalLabelPosition=bottom;verticalAlign=top;fillColor=#2875E2;strokeColor=#ffffff;points=[[0.005,0.63,0],[0.1,0.2,0],[0.9,0.2,0],[0.5,0,0],[0.995,0.63,0],[0.72,0.99,0],[0.5,1,0],[0.28,0.99,0]];shape=mxgraph.kubernetes.icon2;prIcon=svc" vertex="1" parent="1">
          <mxGeometry x="330" y="236" width="50" height="48" as="geometry" />
        </mxCell>
        <mxCell id="2PBmP7rdpc5Au426MF9M-15" value="service :&lt;div&gt;&lt;span style=&quot;white-space: pre;&quot;&gt;&#x9;&lt;/span&gt;- stable ip&amp;nbsp;&lt;br&gt;&lt;span style=&quot;white-space: pre;&quot;&gt;&#x9;&lt;/span&gt;- loadbalancing&lt;br&gt;&lt;/div&gt;" style="rounded=0;whiteSpace=wrap;html=1;align=left;" vertex="1" parent="1">
          <mxGeometry x="580" y="120" width="250" height="60" as="geometry" />
        </mxCell>
        <mxCell id="2PBmP7rdpc5Au426MF9M-44" value="service" style="rounded=0;whiteSpace=wrap;html=1;fillColor=#dae8fc;strokeColor=#6c8ebf;" vertex="1" parent="1">
          <mxGeometry x="365" y="480" width="120" height="30" as="geometry" />
        </mxCell>
        <mxCell id="2PBmP7rdpc5Au426MF9M-45" value="" style="endArrow=classic;html=1;rounded=0;" edge="1" parent="1">
          <mxGeometry width="50" height="50" relative="1" as="geometry">
            <mxPoint x="485" y="259.67" as="sourcePoint" />
            <mxPoint x="385" y="259.67" as="targetPoint" />
          </mxGeometry>
        </mxCell>
        <mxCell id="2PBmP7rdpc5Au426MF9M-46" value="ClusterIP" style="rounded=0;whiteSpace=wrap;html=1;fillColor=#dae8fc;strokeColor=#6c8ebf;" vertex="1" parent="1">
          <mxGeometry x="365" y="520" width="120" height="30" as="geometry" />
        </mxCell>
        <mxCell id="2PBmP7rdpc5Au426MF9M-47" value="" style="rounded=0;whiteSpace=wrap;html=1;fillColor=#fff2cc;strokeColor=#d6b656;" vertex="1" parent="1">
          <mxGeometry y="440" width="850" height="10" as="geometry" />
        </mxCell>
        <mxCell id="2PBmP7rdpc5Au426MF9M-48" value="" style="rounded=0;whiteSpace=wrap;html=1;" vertex="1" parent="1">
          <mxGeometry x="40" y="610" width="470" height="260" as="geometry" />
        </mxCell>
        <mxCell id="2PBmP7rdpc5Au426MF9M-49" value="" style="aspect=fixed;sketch=0;html=1;dashed=0;whitespace=wrap;verticalLabelPosition=bottom;verticalAlign=top;fillColor=#2875E2;strokeColor=#ffffff;points=[[0.005,0.63,0],[0.1,0.2,0],[0.9,0.2,0],[0.5,0,0],[0.995,0.63,0],[0.72,0.99,0],[0.5,1,0],[0.28,0.99,0]];shape=mxgraph.kubernetes.icon2;kubernetesLabel=1;prIcon=node" vertex="1" parent="1">
          <mxGeometry x="210" y="840" width="52.08" height="50" as="geometry" />
        </mxCell>
        <mxCell id="2PBmP7rdpc5Au426MF9M-50" value="" style="aspect=fixed;sketch=0;html=1;dashed=0;whitespace=wrap;verticalLabelPosition=bottom;verticalAlign=top;fillColor=#2875E2;strokeColor=#ffffff;points=[[0.005,0.63,0],[0.1,0.2,0],[0.9,0.2,0],[0.5,0,0],[0.995,0.63,0],[0.72,0.99,0],[0.5,1,0],[0.28,0.99,0]];shape=mxgraph.kubernetes.icon2;kubernetesLabel=1;prIcon=pod" vertex="1" parent="1">
          <mxGeometry x="70" y="620" width="50" height="48" as="geometry" />
        </mxCell>
        <mxCell id="2PBmP7rdpc5Au426MF9M-51" value="" style="aspect=fixed;sketch=0;html=1;dashed=0;whitespace=wrap;verticalLabelPosition=bottom;verticalAlign=top;fillColor=#2875E2;strokeColor=#ffffff;points=[[0.005,0.63,0],[0.1,0.2,0],[0.9,0.2,0],[0.5,0,0],[0.995,0.63,0],[0.72,0.99,0],[0.5,1,0],[0.28,0.99,0]];shape=mxgraph.kubernetes.icon2;kubernetesLabel=1;prIcon=pod" vertex="1" parent="1">
          <mxGeometry x="70" y="690" width="50" height="48" as="geometry" />
        </mxCell>
        <mxCell id="2PBmP7rdpc5Au426MF9M-52" value="ip address" style="rounded=0;whiteSpace=wrap;html=1;fillColor=#fad7ac;strokeColor=#b46504;" vertex="1" parent="1">
          <mxGeometry x="120" y="626" width="150" height="36" as="geometry" />
        </mxCell>
        <mxCell id="2PBmP7rdpc5Au426MF9M-53" value="ip address" style="rounded=0;whiteSpace=wrap;html=1;fillColor=#fad7ac;strokeColor=#b46504;" vertex="1" parent="1">
          <mxGeometry x="120" y="702" width="150" height="36" as="geometry" />
        </mxCell>
        <mxCell id="2PBmP7rdpc5Au426MF9M-54" value="" style="shape=mxgraph.mockup.markup.redX;fillColor=#ff0000;html=1;shadow=0;whiteSpace=wrap;strokeColor=none;" vertex="1" parent="1">
          <mxGeometry x="55" y="614" width="80" height="60" as="geometry" />
        </mxCell>
        <mxCell id="2PBmP7rdpc5Au426MF9M-55" value="" style="aspect=fixed;sketch=0;html=1;dashed=0;whitespace=wrap;verticalLabelPosition=bottom;verticalAlign=top;fillColor=#2875E2;strokeColor=#ffffff;points=[[0.005,0.63,0],[0.1,0.2,0],[0.9,0.2,0],[0.5,0,0],[0.995,0.63,0],[0.72,0.99,0],[0.5,1,0],[0.28,0.99,0]];shape=mxgraph.kubernetes.icon2;kubernetesLabel=1;prIcon=pod" vertex="1" parent="1">
          <mxGeometry x="70" y="766" width="50" height="48" as="geometry" />
        </mxCell>
        <mxCell id="2PBmP7rdpc5Au426MF9M-56" value="new ip address" style="rounded=0;whiteSpace=wrap;html=1;fillColor=#fad7ac;strokeColor=#b46504;" vertex="1" parent="1">
          <mxGeometry x="120" y="772" width="150" height="36" as="geometry" />
        </mxCell>
        <mxCell id="2PBmP7rdpc5Au426MF9M-57" style="edgeStyle=orthogonalEdgeStyle;rounded=0;orthogonalLoop=1;jettySize=auto;html=1;entryX=1;entryY=0.5;entryDx=0;entryDy=0;" edge="1" parent="1" source="2PBmP7rdpc5Au426MF9M-60" target="2PBmP7rdpc5Au426MF9M-52">
          <mxGeometry relative="1" as="geometry" />
        </mxCell>
        <mxCell id="2PBmP7rdpc5Au426MF9M-58" style="edgeStyle=orthogonalEdgeStyle;rounded=0;orthogonalLoop=1;jettySize=auto;html=1;" edge="1" parent="1" source="2PBmP7rdpc5Au426MF9M-60" target="2PBmP7rdpc5Au426MF9M-53">
          <mxGeometry relative="1" as="geometry" />
        </mxCell>
        <mxCell id="2PBmP7rdpc5Au426MF9M-59" style="edgeStyle=orthogonalEdgeStyle;rounded=0;orthogonalLoop=1;jettySize=auto;html=1;entryX=1;entryY=0.5;entryDx=0;entryDy=0;" edge="1" parent="1" source="2PBmP7rdpc5Au426MF9M-60" target="2PBmP7rdpc5Au426MF9M-56">
          <mxGeometry relative="1" as="geometry" />
        </mxCell>
        <mxCell id="2PBmP7rdpc5Au426MF9M-60" value="svc" style="aspect=fixed;sketch=0;html=1;dashed=0;whitespace=wrap;verticalLabelPosition=bottom;verticalAlign=top;fillColor=#2875E2;strokeColor=#ffffff;points=[[0.005,0.63,0],[0.1,0.2,0],[0.9,0.2,0],[0.5,0,0],[0.995,0.63,0],[0.72,0.99,0],[0.5,1,0],[0.28,0.99,0]];shape=mxgraph.kubernetes.icon2;prIcon=svc" vertex="1" parent="1">
          <mxGeometry x="330" y="696" width="50" height="48" as="geometry" />
        </mxCell>
        <mxCell id="2PBmP7rdpc5Au426MF9M-61" value="" style="endArrow=classic;html=1;rounded=0;" edge="1" parent="1">
          <mxGeometry width="50" height="50" relative="1" as="geometry">
            <mxPoint x="570" y="720.6700000000001" as="sourcePoint" />
            <mxPoint x="470" y="720.6700000000001" as="targetPoint" />
          </mxGeometry>
        </mxCell>
        <mxCell id="2PBmP7rdpc5Au426MF9M-62" value="10.0.3.1" style="rounded=0;whiteSpace=wrap;html=1;fillColor=#b1ddf0;strokeColor=#10739e;" vertex="1" parent="1">
          <mxGeometry x="380" y="712" width="90" height="18" as="geometry" />
        </mxCell>
        <mxCell id="2PBmP7rdpc5Au426MF9M-63" value="port: 3000" style="rounded=0;whiteSpace=wrap;html=1;fillColor=#d0cee2;strokeColor=#56517e;" vertex="1" parent="1">
          <mxGeometry x="410" y="730" width="60" height="20" as="geometry" />
        </mxCell>
        <mxCell id="2PBmP7rdpc5Au426MF9M-64" value="80" style="rounded=0;whiteSpace=wrap;html=1;fillColor=#b1ddf0;strokeColor=#10739e;" vertex="1" parent="1">
          <mxGeometry x="230" y="738" width="40" height="20" as="geometry" />
        </mxCell>
        <mxCell id="2PBmP7rdpc5Au426MF9M-65" value="80" style="rounded=0;whiteSpace=wrap;html=1;fillColor=#b1ddf0;strokeColor=#10739e;" vertex="1" parent="1">
          <mxGeometry x="230" y="808" width="40" height="20" as="geometry" />
        </mxCell>
        <mxCell id="2PBmP7rdpc5Au426MF9M-66" value="80" style="rounded=0;whiteSpace=wrap;html=1;fillColor=#b1ddf0;strokeColor=#10739e;" vertex="1" parent="1">
          <mxGeometry x="230" y="662" width="40" height="20" as="geometry" />
        </mxCell>
        <mxCell id="2PBmP7rdpc5Au426MF9M-68" style="edgeStyle=orthogonalEdgeStyle;rounded=0;orthogonalLoop=1;jettySize=auto;html=1;" edge="1" parent="1" source="2PBmP7rdpc5Au426MF9M-67">
          <mxGeometry relative="1" as="geometry">
            <mxPoint x="330" y="1015" as="targetPoint" />
          </mxGeometry>
        </mxCell>
        <mxCell id="2PBmP7rdpc5Au426MF9M-69" value="10.0.3.1:3000" style="edgeLabel;html=1;align=center;verticalAlign=middle;resizable=0;points=[];" vertex="1" connectable="0" parent="2PBmP7rdpc5Au426MF9M-68">
          <mxGeometry x="0.0422" relative="1" as="geometry">
            <mxPoint as="offset" />
          </mxGeometry>
        </mxCell>
        <mxCell id="2PBmP7rdpc5Au426MF9M-67" value="request" style="rounded=0;whiteSpace=wrap;html=1;" vertex="1" parent="1">
          <mxGeometry x="40" y="1000" width="120" height="30" as="geometry" />
        </mxCell>
        <mxCell id="2PBmP7rdpc5Au426MF9M-76" style="edgeStyle=orthogonalEdgeStyle;rounded=0;orthogonalLoop=1;jettySize=auto;html=1;" edge="1" parent="1" source="2PBmP7rdpc5Au426MF9M-70" target="2PBmP7rdpc5Au426MF9M-71">
          <mxGeometry relative="1" as="geometry" />
        </mxCell>
        <mxCell id="2PBmP7rdpc5Au426MF9M-80" style="edgeStyle=orthogonalEdgeStyle;rounded=0;orthogonalLoop=1;jettySize=auto;html=1;" edge="1" parent="1" source="2PBmP7rdpc5Au426MF9M-70" target="2PBmP7rdpc5Au426MF9M-79">
          <mxGeometry relative="1" as="geometry" />
        </mxCell>
        <mxCell id="2PBmP7rdpc5Au426MF9M-81" value="pod-ip:80" style="edgeLabel;html=1;align=center;verticalAlign=middle;resizable=0;points=[];" vertex="1" connectable="0" parent="2PBmP7rdpc5Au426MF9M-80">
          <mxGeometry x="0.2588" y="2" relative="1" as="geometry">
            <mxPoint as="offset" />
          </mxGeometry>
        </mxCell>
        <mxCell id="2PBmP7rdpc5Au426MF9M-70" value="ClusterIP" style="aspect=fixed;sketch=0;html=1;dashed=0;whitespace=wrap;verticalLabelPosition=bottom;verticalAlign=top;fillColor=#2875E2;strokeColor=#ffffff;points=[[0.005,0.63,0],[0.1,0.2,0],[0.9,0.2,0],[0.5,0,0],[0.995,0.63,0],[0.72,0.99,0],[0.5,1,0],[0.28,0.99,0]];shape=mxgraph.kubernetes.icon2;prIcon=svc" vertex="1" parent="1">
          <mxGeometry x="330" y="991" width="50" height="48" as="geometry" />
        </mxCell>
        <mxCell id="2PBmP7rdpc5Au426MF9M-71" value="" style="rounded=0;whiteSpace=wrap;html=1;" vertex="1" parent="1">
          <mxGeometry x="393" y="940" width="30" height="150" as="geometry" />
        </mxCell>
        <mxCell id="2PBmP7rdpc5Au426MF9M-72" value="" style="aspect=fixed;sketch=0;html=1;dashed=0;whitespace=wrap;verticalLabelPosition=bottom;verticalAlign=top;fillColor=#2875E2;strokeColor=#ffffff;points=[[0.005,0.63,0],[0.1,0.2,0],[0.9,0.2,0],[0.5,0,0],[0.995,0.63,0],[0.72,0.99,0],[0.5,1,0],[0.28,0.99,0]];shape=mxgraph.kubernetes.icon2;kubernetesLabel=1;prIcon=pod" vertex="1" parent="1">
          <mxGeometry x="393" y="940" width="31.25" height="30" as="geometry" />
        </mxCell>
        <mxCell id="2PBmP7rdpc5Au426MF9M-73" value="" style="aspect=fixed;sketch=0;html=1;dashed=0;whitespace=wrap;verticalLabelPosition=bottom;verticalAlign=top;fillColor=#2875E2;strokeColor=#ffffff;points=[[0.005,0.63,0],[0.1,0.2,0],[0.9,0.2,0],[0.5,0,0],[0.995,0.63,0],[0.72,0.99,0],[0.5,1,0],[0.28,0.99,0]];shape=mxgraph.kubernetes.icon2;kubernetesLabel=1;prIcon=pod" vertex="1" parent="1">
          <mxGeometry x="393" y="980" width="31.25" height="30" as="geometry" />
        </mxCell>
        <mxCell id="2PBmP7rdpc5Au426MF9M-74" value="" style="aspect=fixed;sketch=0;html=1;dashed=0;whitespace=wrap;verticalLabelPosition=bottom;verticalAlign=top;fillColor=#2875E2;strokeColor=#ffffff;points=[[0.005,0.63,0],[0.1,0.2,0],[0.9,0.2,0],[0.5,0,0],[0.995,0.63,0],[0.72,0.99,0],[0.5,1,0],[0.28,0.99,0]];shape=mxgraph.kubernetes.icon2;kubernetesLabel=1;prIcon=pod" vertex="1" parent="1">
          <mxGeometry x="393" y="1020" width="32.29" height="31" as="geometry" />
        </mxCell>
        <mxCell id="2PBmP7rdpc5Au426MF9M-75" value="" style="aspect=fixed;sketch=0;html=1;dashed=0;whitespace=wrap;verticalLabelPosition=bottom;verticalAlign=top;fillColor=#2875E2;strokeColor=#ffffff;points=[[0.005,0.63,0],[0.1,0.2,0],[0.9,0.2,0],[0.5,0,0],[0.995,0.63,0],[0.72,0.99,0],[0.5,1,0],[0.28,0.99,0]];shape=mxgraph.kubernetes.icon2;kubernetesLabel=1;prIcon=pod" vertex="1" parent="1">
          <mxGeometry x="393" y="1060" width="31.25" height="30" as="geometry" />
        </mxCell>
        <mxCell id="2PBmP7rdpc5Au426MF9M-77" value="80" style="rounded=0;whiteSpace=wrap;html=1;fillColor=#f8cecc;strokeColor=#b85450;" vertex="1" parent="1">
          <mxGeometry x="420" y="920" width="40" height="20" as="geometry" />
        </mxCell>
        <mxCell id="2PBmP7rdpc5Au426MF9M-79" value="" style="aspect=fixed;sketch=0;html=1;dashed=0;whitespace=wrap;verticalLabelPosition=bottom;verticalAlign=top;fillColor=#2875E2;strokeColor=#ffffff;points=[[0.005,0.63,0],[0.1,0.2,0],[0.9,0.2,0],[0.5,0,0],[0.995,0.63,0],[0.72,0.99,0],[0.5,1,0],[0.28,0.99,0]];shape=mxgraph.kubernetes.icon2;kubernetesLabel=1;prIcon=pod" vertex="1" parent="1">
          <mxGeometry x="550" y="991" width="50" height="48" as="geometry" />
        </mxCell>
        <mxCell id="2PBmP7rdpc5Au426MF9M-82" value="deployment" style="rounded=0;whiteSpace=wrap;html=1;rotation=-90;fillColor=#e1d5e7;strokeColor=#9673a6;" vertex="1" parent="1">
          <mxGeometry x="-43.5" y="720" width="170" height="24" as="geometry" />
        </mxCell>
        <mxCell id="2PBmP7rdpc5Au426MF9M-84" value="&lt;div style=&quot;color: rgb(197, 200, 198); background-color: rgb(30, 30, 30); font-family: Menlo, Monaco, &amp;quot;Courier New&amp;quot;, monospace; font-size: 16px; line-height: 24px; white-space: pre;&quot;&gt;&lt;div&gt;&lt;span style=&quot;color: #6089b4;&quot;&gt;apiVersion&lt;/span&gt;: &lt;span style=&quot;color: #9aa83a;&quot;&gt;v1&lt;/span&gt;&lt;/div&gt;&lt;div&gt;&lt;span style=&quot;color: #6089b4;&quot;&gt;kind&lt;/span&gt;: &lt;span style=&quot;color: #9aa83a;&quot;&gt;Service&lt;/span&gt;&lt;/div&gt;&lt;div&gt;&lt;span style=&quot;color: #6089b4;&quot;&gt;metadata&lt;/span&gt;:&lt;/div&gt;&lt;div&gt;  &lt;span style=&quot;color: #6089b4;&quot;&gt;name&lt;/span&gt;: &lt;span style=&quot;color: #9aa83a;&quot;&gt;clusterip-service&lt;/span&gt;&lt;/div&gt;&lt;div&gt;&lt;span style=&quot;color: #6089b4;&quot;&gt;spec&lt;/span&gt;:&lt;/div&gt;&lt;div&gt;  &lt;span style=&quot;color: #6089b4;&quot;&gt;selector&lt;/span&gt;:&lt;/div&gt;&lt;div&gt;    &lt;span style=&quot;color: #6089b4;&quot;&gt;name&lt;/span&gt;: &lt;span style=&quot;color: #9aa83a;&quot;&gt;app1&lt;/span&gt; &lt;span style=&quot;color: #9a9b99;&quot;&gt;# &amp;lt;target label&amp;gt; &lt;/span&gt;&lt;/div&gt;&lt;div&gt;  &lt;span style=&quot;color: #6089b4;&quot;&gt;ports&lt;/span&gt;:&lt;/div&gt;&lt;div&gt;   - &lt;span style=&quot;color: #6089b4;&quot;&gt;port&lt;/span&gt;: &lt;span style=&quot;color: #6089b4;&quot;&gt;3000&lt;/span&gt;&lt;/div&gt;&lt;div&gt;     &lt;span style=&quot;color: #6089b4;&quot;&gt;targetPort&lt;/span&gt;: &lt;span style=&quot;color: #6089b4;&quot;&gt;8080&lt;/span&gt;&lt;/div&gt;&lt;div&gt;     &lt;span style=&quot;color: #6089b4;&quot;&gt;protocol&lt;/span&gt;: &lt;span style=&quot;color: #9aa83a;&quot;&gt;TCP&lt;/span&gt;&lt;/div&gt;&lt;/div&gt;" style="rounded=0;whiteSpace=wrap;html=1;align=left;" vertex="1" parent="1">
          <mxGeometry x="530" y="792" width="180" height="128" as="geometry" />
        </mxCell>
        <mxCell id="2PBmP7rdpc5Au426MF9M-85" value="" style="rounded=0;whiteSpace=wrap;html=1;fillColor=#fad7ac;strokeColor=#b46504;" vertex="1" parent="1">
          <mxGeometry x="40" y="1150" width="680" height="170" as="geometry" />
        </mxCell>
        <mxCell id="2PBmP7rdpc5Au426MF9M-86" value="1" style="aspect=fixed;sketch=0;html=1;dashed=0;whitespace=wrap;verticalLabelPosition=bottom;verticalAlign=top;fillColor=#2875E2;strokeColor=#ffffff;points=[[0.005,0.63,0],[0.1,0.2,0],[0.9,0.2,0],[0.5,0,0],[0.995,0.63,0],[0.72,0.99,0],[0.5,1,0],[0.28,0.99,0]];shape=mxgraph.kubernetes.icon2;kubernetesLabel=1;prIcon=node" vertex="1" parent="1">
          <mxGeometry x="355" y="1290" width="50" height="48" as="geometry" />
        </mxCell>
        <mxCell id="2PBmP7rdpc5Au426MF9M-87" value="" style="aspect=fixed;sketch=0;html=1;dashed=0;whitespace=wrap;verticalLabelPosition=bottom;verticalAlign=top;fillColor=#2875E2;strokeColor=#ffffff;points=[[0.005,0.63,0],[0.1,0.2,0],[0.9,0.2,0],[0.5,0,0],[0.995,0.63,0],[0.72,0.99,0],[0.5,1,0],[0.28,0.99,0]];shape=mxgraph.kubernetes.icon2;kubernetesLabel=1;prIcon=pod" vertex="1" parent="1">
          <mxGeometry x="62.08" y="1190" width="72.92" height="70" as="geometry" />
        </mxCell>
        <mxCell id="2PBmP7rdpc5Au426MF9M-88" value="" style="rounded=0;whiteSpace=wrap;html=1;fillColor=#fad7ac;strokeColor=#b46504;" vertex="1" parent="1">
          <mxGeometry x="40" y="1530" width="680" height="170" as="geometry" />
        </mxCell>
        <mxCell id="2PBmP7rdpc5Au426MF9M-89" value="2" style="aspect=fixed;sketch=0;html=1;dashed=0;whitespace=wrap;verticalLabelPosition=bottom;verticalAlign=top;fillColor=#2875E2;strokeColor=#ffffff;points=[[0.005,0.63,0],[0.1,0.2,0],[0.9,0.2,0],[0.5,0,0],[0.995,0.63,0],[0.72,0.99,0],[0.5,1,0],[0.28,0.99,0]];shape=mxgraph.kubernetes.icon2;kubernetesLabel=1;prIcon=node" vertex="1" parent="1">
          <mxGeometry x="343" y="1680" width="50" height="48" as="geometry" />
        </mxCell>
        <mxCell id="2PBmP7rdpc5Au426MF9M-90" value="" style="aspect=fixed;sketch=0;html=1;dashed=0;whitespace=wrap;verticalLabelPosition=bottom;verticalAlign=top;fillColor=#2875E2;strokeColor=#ffffff;points=[[0.005,0.63,0],[0.1,0.2,0],[0.9,0.2,0],[0.5,0,0],[0.995,0.63,0],[0.72,0.99,0],[0.5,1,0],[0.28,0.99,0]];shape=mxgraph.kubernetes.icon2;kubernetesLabel=1;prIcon=pod" vertex="1" parent="1">
          <mxGeometry x="62.08" y="1570" width="72.92" height="70" as="geometry" />
        </mxCell>
        <mxCell id="2PBmP7rdpc5Au426MF9M-108" style="rounded=0;orthogonalLoop=1;jettySize=auto;html=1;" edge="1" parent="1" source="2PBmP7rdpc5Au426MF9M-91" target="2PBmP7rdpc5Au426MF9M-90">
          <mxGeometry relative="1" as="geometry" />
        </mxCell>
        <mxCell id="2PBmP7rdpc5Au426MF9M-91" value="ClusterIP" style="aspect=fixed;sketch=0;html=1;dashed=0;whitespace=wrap;verticalLabelPosition=bottom;verticalAlign=top;fillColor=#2875E2;strokeColor=#ffffff;points=[[0.005,0.63,0],[0.1,0.2,0],[0.9,0.2,0],[0.5,0,0],[0.995,0.63,0],[0.72,0.99,0],[0.5,1,0],[0.28,0.99,0]];shape=mxgraph.kubernetes.icon2;prIcon=svc" vertex="1" parent="1">
          <mxGeometry x="209.87" y="1375" width="67.71" height="65" as="geometry" />
        </mxCell>
        <mxCell id="2PBmP7rdpc5Au426MF9M-92" value="10.0.2.5" style="rounded=0;whiteSpace=wrap;html=1;fillColor=#bac8d3;strokeColor=#23445d;" vertex="1" parent="1">
          <mxGeometry x="58.54000000000002" y="1260" width="80" height="15" as="geometry" />
        </mxCell>
        <mxCell id="2PBmP7rdpc5Au426MF9M-93" value="10.0.4.5" style="rounded=0;whiteSpace=wrap;html=1;fillColor=#bac8d3;strokeColor=#23445d;" vertex="1" parent="1">
          <mxGeometry x="55.00000000000002" y="1640" width="80" height="15" as="geometry" />
        </mxCell>
        <mxCell id="2PBmP7rdpc5Au426MF9M-94" value="192.168.1.6" style="rounded=0;whiteSpace=wrap;html=1;fillColor=#bac8d3;strokeColor=#23445d;" vertex="1" parent="1">
          <mxGeometry x="196.04000000000002" y="1370" width="80" height="15" as="geometry" />
        </mxCell>
        <mxCell id="2PBmP7rdpc5Au426MF9M-95" value="tier: frontend" style="shape=callout;whiteSpace=wrap;html=1;perimeter=calloutPerimeter;base=5;fillColor=#f8cecc;gradientColor=#ea6b66;strokeColor=#b85450;" vertex="1" parent="1">
          <mxGeometry x="70" y="1180" width="90" height="45" as="geometry" />
        </mxCell>
        <mxCell id="2PBmP7rdpc5Au426MF9M-96" value="tier: frontend" style="shape=callout;whiteSpace=wrap;html=1;perimeter=calloutPerimeter;base=5;fillColor=#f8cecc;gradientColor=#ea6b66;strokeColor=#b85450;" vertex="1" parent="1">
          <mxGeometry x="70" y="1560" width="90" height="45" as="geometry" />
        </mxCell>
        <mxCell id="2PBmP7rdpc5Au426MF9M-98" value="tier: frontend" style="sketch=0;pointerEvents=1;shadow=0;dashed=0;html=1;strokeColor=none;labelPosition=center;verticalLabelPosition=bottom;verticalAlign=top;align=center;fillColor=#505050;shape=mxgraph.mscae.oms.log_search" vertex="1" parent="1">
          <mxGeometry x="270" y="1357.5" width="67.92" height="40" as="geometry" />
        </mxCell>
        <mxCell id="2PBmP7rdpc5Au426MF9M-100" value="3000" style="rhombus;whiteSpace=wrap;html=1;fillColor=#d5e8d4;gradientColor=#97d077;strokeColor=#82b366;" vertex="1" parent="1">
          <mxGeometry x="247.79" y="1430" width="52.5" height="20" as="geometry" />
        </mxCell>
        <mxCell id="2PBmP7rdpc5Au426MF9M-101" value="9000" style="rhombus;whiteSpace=wrap;html=1;fillColor=#d5e8d4;gradientColor=#97d077;strokeColor=#82b366;" vertex="1" parent="1">
          <mxGeometry x="100" y="1275" width="60" height="25" as="geometry" />
        </mxCell>
        <mxCell id="2PBmP7rdpc5Au426MF9M-102" value="9000" style="rhombus;whiteSpace=wrap;html=1;fillColor=#d5e8d4;gradientColor=#97d077;strokeColor=#82b366;" vertex="1" parent="1">
          <mxGeometry x="100" y="1655" width="60" height="25" as="geometry" />
        </mxCell>
        <mxCell id="2PBmP7rdpc5Au426MF9M-107" style="rounded=0;orthogonalLoop=1;jettySize=auto;html=1;entryX=0.995;entryY=0.63;entryDx=0;entryDy=0;entryPerimeter=0;" edge="1" parent="1" source="2PBmP7rdpc5Au426MF9M-91" target="2PBmP7rdpc5Au426MF9M-87">
          <mxGeometry relative="1" as="geometry" />
        </mxCell>
        <mxCell id="2PBmP7rdpc5Au426MF9M-109" value="" style="aspect=fixed;sketch=0;html=1;dashed=0;whitespace=wrap;verticalLabelPosition=bottom;verticalAlign=top;fillColor=#2875E2;strokeColor=#ffffff;points=[[0.005,0.63,0],[0.1,0.2,0],[0.9,0.2,0],[0.5,0,0],[0.995,0.63,0],[0.72,0.99,0],[0.5,1,0],[0.28,0.99,0]];shape=mxgraph.kubernetes.icon2;kubernetesLabel=1;prIcon=pod" vertex="1" parent="1">
          <mxGeometry x="550" y="1190" width="72.92" height="70" as="geometry" />
        </mxCell>
        <mxCell id="2PBmP7rdpc5Au426MF9M-110" value="tier: backend" style="shape=callout;whiteSpace=wrap;html=1;perimeter=calloutPerimeter;base=5;fillColor=#f8cecc;gradientColor=#ea6b66;strokeColor=#b85450;" vertex="1" parent="1">
          <mxGeometry x="560" y="1170" width="90" height="45" as="geometry" />
        </mxCell>
        <mxCell id="2PBmP7rdpc5Au426MF9M-111" value="10.0.2.7" style="rounded=0;whiteSpace=wrap;html=1;fillColor=#bac8d3;strokeColor=#23445d;" vertex="1" parent="1">
          <mxGeometry x="542.9200000000001" y="1260" width="80" height="15" as="geometry" />
        </mxCell>
        <mxCell id="2PBmP7rdpc5Au426MF9M-112" value="5000" style="rhombus;whiteSpace=wrap;html=1;fillColor=#d5e8d4;gradientColor=#97d077;strokeColor=#82b366;" vertex="1" parent="1">
          <mxGeometry x="580" y="1275" width="60" height="25" as="geometry" />
        </mxCell>
        <mxCell id="2PBmP7rdpc5Au426MF9M-113" value="" style="aspect=fixed;sketch=0;html=1;dashed=0;whitespace=wrap;verticalLabelPosition=bottom;verticalAlign=top;fillColor=#2875E2;strokeColor=#ffffff;points=[[0.005,0.63,0],[0.1,0.2,0],[0.9,0.2,0],[0.5,0,0],[0.995,0.63,0],[0.72,0.99,0],[0.5,1,0],[0.28,0.99,0]];shape=mxgraph.kubernetes.icon2;kubernetesLabel=1;prIcon=pod" vertex="1" parent="1">
          <mxGeometry x="587.08" y="1560" width="72.92" height="70" as="geometry" />
        </mxCell>
        <mxCell id="2PBmP7rdpc5Au426MF9M-114" value="tier: backend" style="shape=callout;whiteSpace=wrap;html=1;perimeter=calloutPerimeter;base=5;fillColor=#f8cecc;gradientColor=#ea6b66;strokeColor=#b85450;" vertex="1" parent="1">
          <mxGeometry x="597.08" y="1540" width="90" height="45" as="geometry" />
        </mxCell>
        <mxCell id="2PBmP7rdpc5Au426MF9M-115" value="10.0.4.8" style="rounded=0;whiteSpace=wrap;html=1;fillColor=#bac8d3;strokeColor=#23445d;" vertex="1" parent="1">
          <mxGeometry x="580.0000000000001" y="1630" width="80" height="15" as="geometry" />
        </mxCell>
        <mxCell id="2PBmP7rdpc5Au426MF9M-116" value="5000" style="rhombus;whiteSpace=wrap;html=1;fillColor=#d5e8d4;gradientColor=#97d077;strokeColor=#82b366;" vertex="1" parent="1">
          <mxGeometry x="617.08" y="1645" width="60" height="25" as="geometry" />
        </mxCell>
        <mxCell id="2PBmP7rdpc5Au426MF9M-117" value="" style="aspect=fixed;sketch=0;html=1;dashed=0;whitespace=wrap;verticalLabelPosition=bottom;verticalAlign=top;fillColor=#2875E2;strokeColor=#ffffff;points=[[0.005,0.63,0],[0.1,0.2,0],[0.9,0.2,0],[0.5,0,0],[0.995,0.63,0],[0.72,0.99,0],[0.5,1,0],[0.28,0.99,0]];shape=mxgraph.kubernetes.icon2;kubernetesLabel=1;prIcon=pod" vertex="1" parent="1">
          <mxGeometry x="442.92" y="1560" width="72.92" height="70" as="geometry" />
        </mxCell>
        <mxCell id="2PBmP7rdpc5Au426MF9M-118" value="tier: backend" style="shape=callout;whiteSpace=wrap;html=1;perimeter=calloutPerimeter;base=5;fillColor=#f8cecc;gradientColor=#ea6b66;strokeColor=#b85450;" vertex="1" parent="1">
          <mxGeometry x="452.92" y="1540" width="90" height="45" as="geometry" />
        </mxCell>
        <mxCell id="2PBmP7rdpc5Au426MF9M-119" value="10.0.4.7" style="rounded=0;whiteSpace=wrap;html=1;fillColor=#bac8d3;strokeColor=#23445d;" vertex="1" parent="1">
          <mxGeometry x="435.8400000000001" y="1630" width="80" height="15" as="geometry" />
        </mxCell>
        <mxCell id="2PBmP7rdpc5Au426MF9M-120" value="5000" style="rhombus;whiteSpace=wrap;html=1;fillColor=#d5e8d4;gradientColor=#97d077;strokeColor=#82b366;" vertex="1" parent="1">
          <mxGeometry x="472.92" y="1645" width="60" height="25" as="geometry" />
        </mxCell>
        <mxCell id="2PBmP7rdpc5Au426MF9M-126" style="edgeStyle=orthogonalEdgeStyle;rounded=0;orthogonalLoop=1;jettySize=auto;html=1;" edge="1" parent="1" source="2PBmP7rdpc5Au426MF9M-122" target="2PBmP7rdpc5Au426MF9M-117">
          <mxGeometry relative="1" as="geometry" />
        </mxCell>
        <mxCell id="2PBmP7rdpc5Au426MF9M-128" style="rounded=0;orthogonalLoop=1;jettySize=auto;html=1;" edge="1" parent="1" source="2PBmP7rdpc5Au426MF9M-122" target="2PBmP7rdpc5Au426MF9M-109">
          <mxGeometry relative="1" as="geometry" />
        </mxCell>
        <mxCell id="2PBmP7rdpc5Au426MF9M-122" value="ClusterIP" style="aspect=fixed;sketch=0;html=1;dashed=0;whitespace=wrap;verticalLabelPosition=bottom;verticalAlign=top;fillColor=#2875E2;strokeColor=#ffffff;points=[[0.005,0.63,0],[0.1,0.2,0],[0.9,0.2,0],[0.5,0,0],[0.995,0.63,0],[0.72,0.99,0],[0.5,1,0],[0.28,0.99,0]];shape=mxgraph.kubernetes.icon2;prIcon=svc" vertex="1" parent="1">
          <mxGeometry x="445.53" y="1375" width="67.71" height="65" as="geometry" />
        </mxCell>
        <mxCell id="2PBmP7rdpc5Au426MF9M-123" value="192.168.1.9" style="rounded=0;whiteSpace=wrap;html=1;fillColor=#bac8d3;strokeColor=#23445d;" vertex="1" parent="1">
          <mxGeometry x="439.38" y="1375" width="80" height="15" as="geometry" />
        </mxCell>
        <mxCell id="2PBmP7rdpc5Au426MF9M-124" value="3001" style="rhombus;whiteSpace=wrap;html=1;fillColor=#d5e8d4;gradientColor=#97d077;strokeColor=#82b366;" vertex="1" parent="1">
          <mxGeometry x="485" y="1430" width="52.5" height="20" as="geometry" />
        </mxCell>
        <mxCell id="2PBmP7rdpc5Au426MF9M-125" style="rounded=0;orthogonalLoop=1;jettySize=auto;html=1;entryX=0.451;entryY=0.143;entryDx=0;entryDy=0;entryPerimeter=0;" edge="1" parent="1" source="2PBmP7rdpc5Au426MF9M-122" target="2PBmP7rdpc5Au426MF9M-113">
          <mxGeometry relative="1" as="geometry" />
        </mxCell>
        <mxCell id="2PBmP7rdpc5Au426MF9M-136" style="rounded=0;orthogonalLoop=1;jettySize=auto;html=1;entryX=1;entryY=1;entryDx=0;entryDy=0;" edge="1" parent="1" source="2PBmP7rdpc5Au426MF9M-129" target="2PBmP7rdpc5Au426MF9M-130">
          <mxGeometry relative="1" as="geometry" />
        </mxCell>
        <mxCell id="2PBmP7rdpc5Au426MF9M-129" value="clusterIP&lt;br&gt;192.168.1.6&lt;br&gt;3000" style="ellipse;whiteSpace=wrap;html=1;aspect=fixed;fillColor=#f8cecc;gradientColor=#ea6b66;strokeColor=#b85450;" vertex="1" parent="1">
          <mxGeometry x="160" y="1970" width="70" height="70" as="geometry" />
        </mxCell>
        <mxCell id="2PBmP7rdpc5Au426MF9M-131" style="rounded=0;orthogonalLoop=1;jettySize=auto;html=1;" edge="1" parent="1" source="2PBmP7rdpc5Au426MF9M-130">
          <mxGeometry relative="1" as="geometry">
            <mxPoint x="270" y="1885" as="targetPoint" />
          </mxGeometry>
        </mxCell>
        <mxCell id="2PBmP7rdpc5Au426MF9M-137" value="request" style="edgeLabel;html=1;align=center;verticalAlign=middle;resizable=0;points=[];" vertex="1" connectable="0" parent="2PBmP7rdpc5Au426MF9M-131">
          <mxGeometry x="-0.2057" relative="1" as="geometry">
            <mxPoint as="offset" />
          </mxGeometry>
        </mxCell>
        <mxCell id="2PBmP7rdpc5Au426MF9M-130" value="fontend&lt;br&gt;10.0.4.5" style="ellipse;whiteSpace=wrap;html=1;aspect=fixed;fillColor=#d5e8d4;gradientColor=#97d077;strokeColor=#82b366;" vertex="1" parent="1">
          <mxGeometry x="40" y="1910" width="50" height="50" as="geometry" />
        </mxCell>
        <mxCell id="2PBmP7rdpc5Au426MF9M-134" style="rounded=0;orthogonalLoop=1;jettySize=auto;html=1;" edge="1" parent="1" source="2PBmP7rdpc5Au426MF9M-132" target="2PBmP7rdpc5Au426MF9M-133">
          <mxGeometry relative="1" as="geometry" />
        </mxCell>
        <mxCell id="2PBmP7rdpc5Au426MF9M-132" value="clusterIP&lt;br&gt;192.168.1.9&lt;br&gt;:3001" style="ellipse;whiteSpace=wrap;html=1;aspect=fixed;fillColor=#f8cecc;gradientColor=#ea6b66;strokeColor=#b85450;" vertex="1" parent="1">
          <mxGeometry x="277.58" y="1840" width="70" height="70" as="geometry" />
        </mxCell>
        <mxCell id="2PBmP7rdpc5Au426MF9M-135" style="rounded=0;orthogonalLoop=1;jettySize=auto;html=1;" edge="1" parent="1" source="2PBmP7rdpc5Au426MF9M-133" target="2PBmP7rdpc5Au426MF9M-129">
          <mxGeometry relative="1" as="geometry" />
        </mxCell>
        <mxCell id="2PBmP7rdpc5Au426MF9M-138" value="response" style="edgeLabel;html=1;align=center;verticalAlign=middle;resizable=0;points=[];" vertex="1" connectable="0" parent="2PBmP7rdpc5Au426MF9M-135">
          <mxGeometry x="0.0272" y="-2" relative="1" as="geometry">
            <mxPoint as="offset" />
          </mxGeometry>
        </mxCell>
        <mxCell id="2PBmP7rdpc5Au426MF9M-133" value="backend&lt;br&gt;10.0.4.8:5000" style="ellipse;whiteSpace=wrap;html=1;aspect=fixed;fillColor=#d5e8d4;gradientColor=#97d077;strokeColor=#82b366;" vertex="1" parent="1">
          <mxGeometry x="400" y="1930" width="70" height="70" as="geometry" />
        </mxCell>
      </root>
    </mxGraphModel>
  </diagram>
</mxfile>
